<svg width="50" height="25" viewBox="0 0 400 130" fill="none" xmlns="http://www.w3.org/2000/svg">
<rect x="90.2616" y="21.8019" width="81.191" height="96.8306" transform="rotate(7.4187 90.2616 21.8019)" fill="white" stroke="black" stroke-width="5"/>
<mask id="path-2-inside-1_11_6" fill="white">
<path d="M136.957 29.3204L213.769 8.00001L241.518 107.972L164.706 129.292L136.957 29.3204Z"/>
</mask>
<path d="M136.957 29.3204L213.769 8.00001L241.518 107.972L164.706 129.292L136.957 29.3204Z" fill="white"/>
<path d="M213.769 8.00001L218.587 6.66274L217.25 1.84489L212.432 3.18216L213.769 8.00001ZM241.518 107.972L242.855 112.79L247.673 111.453L246.336 106.635L241.518 107.972ZM138.294 34.1382L215.106 12.8179L212.432 3.18216L135.62 24.5025L138.294 34.1382ZM208.951 9.33729L236.7 109.309L246.336 106.635L218.587 6.66274L208.951 9.33729ZM240.18 103.154L163.369 124.475L166.043 134.11L242.855 112.79L240.18 103.154Z" fill="black" mask="url(#path-2-inside-1_11_6)"/>
<mask id="path-4-inside-2_11_6" fill="white">
<path d="M10 31.4135L93.3547 21.0213L105.479 118.268L22.1241 128.661L10 31.4135Z"/>
</mask>
<path d="M10 31.4135L93.3547 21.0213L105.479 118.268L22.1241 128.661L10 31.4135Z" fill="white"/>
<path d="M10 31.4135L9.38142 26.4519L4.41983 27.0704L5.03841 32.032L10 31.4135ZM22.1241 128.661L17.1626 129.279L17.7811 134.241L22.7427 133.622L22.1241 128.661ZM10.6186 36.375L93.9733 25.9829L92.7361 16.0597L9.38142 26.4519L10.6186 36.375ZM104.86 113.307L21.5056 123.699L22.7427 133.622L106.097 123.23L104.86 113.307ZM27.0857 128.042L14.9616 30.7949L5.03841 32.032L17.1626 129.279L27.0857 128.042Z" fill="black" mask="url(#path-4-inside-2_11_6)"/>
<line x1="143.661" y1="28.3384" x2="159.469" y2="128.611" stroke="black" stroke-width="5"/>
<line x1="91.4923" y1="20.8034" x2="98.7469" y2="112.778" stroke="black" stroke-width="5"/>
</svg>
